<svg width="20" height="20" viewBox="0 0 20 20" fill="none" xmlns="http://www.w3.org/2000/svg">
<path fill-rule="evenodd" clip-rule="evenodd" d="M3.05176e-05 2.40167C3.05176e-05 1.07583 1.07586 0 2.4017 0C3.7267 0 4.80253 1.07583 4.80336 2.40167C4.80336 3.7275 3.72753 4.82583 2.4017 4.82583C1.07586 4.82583 3.05176e-05 3.7275 3.05176e-05 2.40167ZM19.995 20V19.9992H20V12.6642C20 9.07586 19.2275 6.31169 15.0325 6.31169C13.0158 6.31169 11.6625 7.41835 11.11 8.46752H11.0517V6.64669H7.07416V19.9992H11.2158V13.3875C11.2158 11.6467 11.5458 9.96336 13.7017 9.96336C15.8259 9.96336 15.8575 11.95 15.8575 13.4992V20H19.995ZM0.330015 6.64755H4.47668V20H0.330015V6.64755Z" fill="#8F8F8F"/>
</svg>
