<svg width="58" height="58" viewBox="0 0 58 58" fill="none" xmlns="http://www.w3.org/2000/svg">
<rect width="58" height="58" rx="29" fill="white"/>
<path fill-rule="evenodd" clip-rule="evenodd" d="M34.0449 18H23.9552C20.6715 18 18 20.6715 18 23.9552V34.045C18 37.3286 20.6715 40 23.9552 40H34.045C37.3286 40 40.0001 37.3286 40.0001 34.045V23.9552C40.0001 20.6715 37.3286 18 34.0449 18ZM29 35.0155C25.6831 35.0155 22.9846 32.317 22.9846 29C22.9846 25.683 25.6831 22.9845 29 22.9845C32.317 22.9845 35.0155 25.683 35.0155 29C35.0155 32.317 32.317 35.0155 29 35.0155ZM35.1594 24.4032C34.1791 24.4032 33.3819 23.6059 33.3819 22.6257C33.3819 21.6455 34.1791 20.848 35.1594 20.848C36.1396 20.848 36.937 21.6455 36.937 22.6257C36.937 23.6059 36.1396 24.4032 35.1594 24.4032ZM29 24.2742C26.3943 24.2742 24.2742 26.3941 24.2742 29C24.2742 31.6056 26.3943 33.7257 29 33.7257C31.6058 33.7257 33.7257 31.6056 33.7257 29C33.7257 26.3941 31.6058 24.2742 29 24.2742ZM34.6715 22.6257C34.6715 22.3568 34.8904 22.1379 35.1593 22.1379C35.4284 22.1379 35.6472 22.3566 35.6472 22.6257C35.6472 22.8947 35.4284 23.1134 35.1593 23.1134C34.8904 23.1134 34.6715 22.8946 34.6715 22.6257Z" fill="#8F8F8F"/>
</svg>
