<svg width="36" height="35" viewBox="0 0 36 35" fill="none" xmlns="http://www.w3.org/2000/svg">
<g clip-path="url(#clip0)">
<path d="M35.1218 32.746L25.0513 22.6755C26.9614 20.3175 28.1112 17.3196 28.1112 14.0556C28.1112 6.48923 21.9553 0.333374 14.3889 0.333374C6.82247 0.333374 0.666687 6.48923 0.666687 14.0556C0.666687 21.6221 6.82254 27.7779 14.389 27.7779C17.6529 27.7779 20.6508 26.6281 23.0089 24.7181L33.0793 34.7885C33.3614 35.0705 33.8186 35.0705 34.1007 34.7885L35.1218 33.7673C35.4038 33.4853 35.4038 33.028 35.1218 32.746ZM14.389 24.889C8.41511 24.889 3.5556 20.0295 3.5556 14.0556C3.5556 8.0818 8.41511 3.22229 14.389 3.22229C20.3628 3.22229 25.2223 8.0818 25.2223 14.0556C25.2223 20.0295 20.3628 24.889 14.389 24.889Z" fill="white"/>
</g>
<defs>
<clipPath id="clip0">
<rect x="0.666687" y="0.333374" width="34.6667" height="34.6667" fill="white"/>
</clipPath>
</defs>
</svg>
