<svg width="20" height="20" viewBox="0 0 20 20" fill="none" xmlns="http://www.w3.org/2000/svg">
<g clip-path="url(#clip0)">
<path d="M10.0049 20C10.8732 20 11.5836 19.2896 11.5836 18.4213L11.5836 1.57869C11.5836 0.710409 10.8732 -6.2106e-08 10.0049 -1.38013e-07C9.13662 -2.13921e-07 8.42621 0.710409 8.42621 1.57869L8.42621 18.4213C8.42621 19.2896 9.12675 20 10.0049 20Z" fill="white"/>
<path d="M10.0049 20.0001C10.4095 20.0001 10.814 19.8422 11.1199 19.5363L19.5362 11.1101C20.148 10.4983 20.148 9.49193 19.5363 8.88019C18.9245 8.26845 17.9181 8.26845 17.3064 8.88019L10.0049 16.1816L2.70349 8.88019C2.09175 8.26845 1.08534 8.26845 0.473597 8.88019C-0.138146 9.5018 -0.138146 10.4983 0.473596 11.1101L8.88011 19.5363C9.19584 19.8422 9.60038 20.0001 10.0049 20.0001Z" fill="white"/>
</g>
<defs>
<clipPath id="clip0">
<rect width="20" height="20" transform="matrix(-1 -8.74228e-08 -8.74228e-08 1 20 0)" fill="white"/>
</clipPath>
</defs>
</svg>
