<svg width="557" height="558" viewBox="0 0 557 558" fill="none" xmlns="http://www.w3.org/2000/svg">
<path d="M164.64 491.115C199.491 510.169 239.481 521 282 521C417.31 521 527 411.31 527 276C527 140.69 417.31 31 282 31C146.69 31 37 140.69 37 276C37 316.444 46.7998 354.599 64.1544 388.22" stroke="white" stroke-width="3"/>
<path d="M378.38 105.23C303.189 62.4162 205.819 73.0809 141.676 137.224C64.7421 214.158 64.7416 338.892 141.675 415.825C218.608 492.758 343.342 492.758 420.276 415.824C483.649 352.452 494.82 256.646 453.79 181.839" stroke="white" stroke-width="3" stroke-linecap="round"/>
<circle cx="144.5" cy="418.5" r="17" fill="#F3F3F3" stroke="white" stroke-width="3"/>
<circle cx="278.5" cy="31.4999" r="8" fill="#F3F3F3" stroke="white" stroke-width="3"/>
<circle cx="456.5" cy="187.5" r="9" fill="#F3F3F3" stroke="white" stroke-width="3"/>
</svg>
