<svg width="94" height="94" viewBox="0 0 94 94" fill="none" xmlns="http://www.w3.org/2000/svg">
<g clip-path="url(#clip0)">
<path d="M70.7726 81.5856L46.9996 87.9867L23.2263 81.5856L17.7405 22.1532H76.2591L70.7726 81.5856Z" fill="#2062AF"/>
<path d="M46.9995 26.9671V82.8813L47.0532 82.8959L66.2917 77.7155L70.7323 26.9671H46.9995Z" fill="#3C9CD7"/>
<path d="M33.5075 13.4214V9.88401H38.6685V6.01324H29.6367V16.9536H38.6685V13.4214H33.5075ZM47.9528 9.88401H51.561V6.01324H42.5283V9.88401C43.7368 11.0925 44.367 11.6709 46.1148 13.4186C45.0931 13.4186 42.5283 13.4223 42.5283 13.4221V16.9536H51.561V13.4214L47.9528 9.88401ZM60.755 9.88401H64.3631V6.01324H55.33V9.88401C56.5385 11.0925 57.1691 11.6709 58.9169 13.4186C57.8955 13.4186 55.33 13.4223 55.33 13.4221V16.9536H64.3633V13.4214L60.755 9.88401Z" fill="black"/>
<path d="M46.9783 41.8277L29.9633 48.914L30.5275 55.93L46.9783 48.8962L64.4777 41.4144L65.2032 34.2373L46.9783 41.8277Z" fill="white"/>
<path d="M29.9631 48.914L30.5273 55.9299L46.9782 48.8962V41.8276L29.9631 48.914Z" fill="url(#paint0_linear)"/>
<path d="M65.2033 34.2374L46.9784 41.8276V48.8961L64.4777 41.4143L65.2033 34.2374Z" fill="url(#paint1_linear)"/>
<path d="M29.9893 48.914L30.5537 55.93L55.7954 56.0105L55.2308 65.365L46.9248 67.7034L38.9403 65.6874L38.4565 59.8811H31.0375L32.0053 71.0904L47.0054 75.5256L61.9242 71.1708L63.8598 48.914H29.9893Z" fill="url(#paint2_linear)"/>
<path opacity="0.05" d="M46.9784 48.914H29.9633L30.5275 55.93L46.9784 55.9825V48.914ZM46.9784 67.6811L46.8977 67.7036L38.9143 65.6876L38.4305 59.8812H31.0117L31.9793 71.0905L46.9784 75.5257V67.6811Z" fill="black"/>
<path d="M28.4309 34.2374H65.2034L64.4778 41.4145H29.3178L28.4309 34.2374Z" fill="url(#paint3_linear)"/>
<path opacity="0.05" d="M46.9784 34.2374H28.4309L29.3178 41.4145H46.9784V34.2374Z" fill="black"/>
</g>
<defs>
<linearGradient id="paint0_linear" x1="38.4706" y1="55.9301" x2="38.4706" y2="41.8278" gradientUnits="userSpaceOnUse">
<stop offset="0.387" stop-color="#D1D3D4" stop-opacity="0"/>
<stop offset="1" stop-color="#D1D3D4"/>
</linearGradient>
<linearGradient id="paint1_linear" x1="56.0906" y1="48.8963" x2="56.0906" y2="34.2376" gradientUnits="userSpaceOnUse">
<stop offset="0.387" stop-color="#D1D3D4" stop-opacity="0"/>
<stop offset="1" stop-color="#D1D3D4"/>
</linearGradient>
<linearGradient id="paint2_linear" x1="29.9893" y1="62.22" x2="63.8596" y2="62.22" gradientUnits="userSpaceOnUse">
<stop stop-color="#E8E7E5"/>
<stop offset="1" stop-color="white"/>
</linearGradient>
<linearGradient id="paint3_linear" x1="28.4309" y1="37.826" x2="65.2032" y2="37.826" gradientUnits="userSpaceOnUse">
<stop stop-color="#E8E7E5"/>
<stop offset="1" stop-color="white"/>
</linearGradient>
<clipPath id="clip0">
<rect width="94" height="94" fill="white"/>
</clipPath>
</defs>
</svg>
